<svg xmlns="http://www.w3.org/2000/svg" width="1200" height="192"><path fill="#79A3D0" fill-opacity=".05" d="M760.024-2.48c-6.697-2.18-13.84-1.617-20.117 1.58-.56.284-1.108.587-1.648.9h27.207c-1.696-1.017-3.516-1.854-5.443-2.48zM892.604 192H874.27c5.955 1.31 12.21 1.356 18.334 0zM571.08-2.052c-.126.687-.268 1.37-.406 2.052h3.49c-.98-.75-2-1.45-3.085-2.052zM1179.815 107.453c-2.774 8.535-2.062 17.637 2.012 25.633 4.158 8.167 10.61 14.404 18.173 18.357v-24.585c-1.172-1.325-2.2-2.79-3.024-4.41-2.103-4.125-2.47-8.826-1.038-13.232.834-2.565 2.234-4.84 4.062-6.717V86.444c-1.177.4-2.34.884-3.48 1.464-7.998 4.07-13.93 11.01-16.705 19.543zM558.763 50.763c-4.016 0-7.843-.8-11.36-2.213-11.654 13.988-26.94 25.26-45.155 32.135-22.03 8.314-45.98 7.55-67.437-2.15-9.517-4.3-18.033-10.14-25.295-17.222-5.312 4.686-10.842 9.095-16.574 13.22 4.326 11.767 11.044 22.638 19.967 31.976 17.073 17.868 40.088 28.018 64.797 28.58 38.685.878 73.52-16.93 95.885-45.14-1.27-14.373-.975-28.98.94-43.62-4.61 2.793-9.994 4.433-15.767 4.433zM768.144 192h36.865c-3.997-15.538-6.486-31.48-7.41-47.648-8.42 16.617-18.262 32.55-29.456 47.648zM1142.758 0c18.558 30.033 27.58 66.242 23.317 103.96-4.062 35.95-22.257 66.932-48.403 88.04H1200v-34.852c-9.8-4.45-17.756-12.02-22.712-21.754-4.688-9.207-5.51-19.688-2.312-29.516 3.193-9.826 10.024-17.82 19.233-22.508 1.886-.96 3.825-1.704 5.79-2.25V0h-57.242zM690.58 111.258c-13.88-18.462-19.743-41.225-16.505-64.095l16.804 2.38c-2.603 18.38 2.108 36.675 13.266 51.514 8.61 11.45 20.27 19.767 33.59 24.17 8.68-9.65 17.752-19.024 27.234-28.085 10.99-10.503 22.388-20.423 34.117-29.81 1.05-4.303 2.013-8.636 2.88-12.998-4.786 5.32-10.548 9.776-17.114 13.12-23.445 11.94-52.234 2.577-64.176-20.87-4.688-9.21-5.51-19.69-2.315-29.52C720.54 10.37 724.41 4.528 729.565 0H624.04c.56 6.456.784 12.978.635 19.55-.747 32.89-12.522 62.973-31.675 86.844 5.144 26.897 16.393 52.474 33.334 75.004 2.752 3.66 5.63 7.19 8.613 10.603h52.076c11.732-18.428 24.702-36.164 38.88-53.098-13.876-5.863-26.03-15.285-35.323-27.644zM275.344 5.656c-5.066.995-10.15 1.44-15.197 1.378-3.853 14.594-6.02 29.742-6.373 45.213-.407 17.907 1.118 35.56 4.462 52.73 16 1.613 32.327.872 48.553-2.31 2.38-.466 4.74-.987 7.093-1.532-4.226-34.748-16.25-67.587-34.504-96.375-1.336.326-2.678.632-4.036.896zM599.22 16.556c-3.542 9.518-6.127 19.55-7.608 30.008-.727 5.132-1.222 10.26-1.516 15.376 5.543-13.27 8.78-27.75 9.128-42.97.018-.807-.01-1.608-.005-2.414zM947.39 180.322c-5.263-6.67-9.66-13.83-13.162-21.346-4.73 14.196-14.456 25.844-27.524 33.023h29.098c4.01-3.77 7.88-7.66 11.588-11.678zM840.854 172.03c-4.688-9.206-5.51-19.688-2.313-29.516 3.196-9.827 10.028-17.82 19.235-22.508 7.488-3.812 16.013-4.48 24.003-1.882 7.99 2.598 14.49 8.152 18.303 15.64 3.112 6.11 3.66 13.066 1.537 19.59-2.12 6.52-6.654 11.828-12.767 14.94-5.01 2.55-10.712 3-16.06 1.26-5.347-1.74-9.696-5.458-12.25-10.47-2.1-4.126-2.47-8.827-1.036-13.233 1.434-4.407 4.497-7.993 8.627-10.093 3.424-1.744 7.322-2.05 10.975-.863 3.657 1.188 6.63 3.73 8.376 7.155 3.01 5.904.65 13.156-5.257 16.163-4.973 2.534-11.083.546-13.618-4.428l4.536-2.313c1.262 2.477 4.3 3.464 6.772 2.205 3.405-1.733 4.765-5.915 3.03-9.318-1.127-2.214-3.05-3.856-5.41-4.624-2.36-.768-4.88-.568-7.092.56-2.917 1.484-5.08 4.017-6.095 7.13-1.013 3.113-.754 6.434.733 9.35 1.933 3.8 5.232 6.618 9.287 7.938 4.053 1.318 8.376.98 12.172-.956 4.9-2.495 8.537-6.748 10.236-11.978 1.7-5.23 1.263-10.806-1.232-15.703-6.596-12.955-22.5-18.128-35.457-11.53-7.995 4.07-13.927 11.01-16.702 19.542-2.775 8.534-2.06 17.637 2.01 25.632 6.022 11.822 16.835 19.633 28.88 22.28h18.333c3.438-.763 6.836-1.966 10.116-3.636 12.835-6.535 22.355-17.677 26.81-31.375.61-1.87 1.105-3.76 1.505-5.66-5.863-15.663-8.02-32.59-6.088-49.69 2.63-23.286 14.174-44.155 32.502-58.76 14.753-11.76 32.486-18.315 50.99-19.055.216-7.974.1-15.92-.34-23.823h-76.374c-21.726 8.58-42.85 18.694-63.22 30.33.372 8.103.01 16.3-1.15 24.508-3.97 28.027-18.614 52.832-41.238 69.843-3.836 2.884-7.833 5.462-11.944 7.773.215 20.287 3.066 40.27 8.42 59.546h37.415c-8.17-4.567-14.813-11.442-19.156-19.97zM578.98 121.53c-26.615 24.933-62.598 39.9-101.854 39.01-31.51-.716-60.854-13.66-82.626-36.444-10.093-10.564-17.967-22.668-23.474-35.74-8.454 4.642-17.237 8.73-26.312 12.213-.247 30.892 2.64 61.493 8.546 91.43h44.032c5.684-10.134 15.647-17.777 27.937-20.07 19.596-3.652 38.687 4.812 49.557 20.07h52.025c2.924-3.002 6.346-5.542 10.19-7.5 7.488-3.81 16.014-4.48 24.004-1.883 5.562 1.81 10.4 5.055 14.114 9.384h34.735c-.706-2.86-1.64-5.68-2.824-8.43-13.002-19.163-22.42-40.113-28.05-62.04zM747.046 127.62c.964.177 1.932.345 2.907.482 9.253 1.31 18.482 1.152 27.438-.365 7.207-14.91 13.197-30.392 17.898-46.32-8.342 6.998-16.51 14.267-24.455 21.858-8.244 7.88-16.16 16.01-23.787 24.344zM1021.768 139.133c23.14 2.613 44.093-14.086 46.71-37.227 1.645-14.576-2.482-28.92-11.624-40.39-8.22-10.314-19.614-17.18-32.423-19.66-.493 5.874-1.137 11.753-1.968 17.637-3.463 24.446-10.416 47.84-20.53 69.616 5.036 5.408 11.93 9.13 19.836 10.023zM849.704 15.376c-6.12 8.406-11.497 17.298-16.09 26.595 5.896-3.954 11.88-7.755 17.92-11.447-.262-5.105-.887-10.16-1.83-15.147zM1149.21 102.056c4.126-36.515-5.354-72.483-26.752-102.056h-97.362c.43 8.223.534 16.487.297 24.78 17.7 2.843 33.484 12.044 44.733 26.158 11.967 15.017 17.37 33.795 15.215 52.875-3.666 32.44-33.04 55.85-65.478 52.184-9.925-1.12-18.825-5.152-25.957-11.137-6.87 12.358-14.814 24.107-23.764 35.135 4.896 4.565 10.314 8.594 16.16 12.006h100.325c33.47-16.99 58.065-49.94 62.585-89.944zM976.617 101.736l16.865 1.906c-.075.654-.09 1.3-.122 1.95 5.778-15.49 9.923-31.718 12.296-48.48.767-5.415 1.364-10.827 1.828-16.233-14.32.91-28.002 6.14-39.46 15.27-14.78 11.78-24.09 28.612-26.214 47.395-2.648 23.45 3.958 45.848 16.893 63.547 9.018-11.398 16.902-23.603 23.562-36.475-4.643-8.535-6.82-18.513-5.648-28.88zM850.55 52.458c.568-4.005.906-8.005 1.052-11.99-8.176 5.11-16.23 10.448-24.13 16.054-2.825 14.883-6.644 29.482-11.423 43.723-.134 1.02-.27 2.04-.385 3.067-.322 2.854-.575 5.704-.794 8.552.347-.252.703-.488 1.048-.746 19-14.288 31.3-35.12 34.633-58.66zM747.573 144.908c-4.506-.64-8.905-1.628-13.18-2.924-13.533 15.967-25.968 32.672-37.277 50.016h38.577c12.205-14.48 22.967-29.93 32.206-46.17-6.72.334-13.517.042-20.327-.922zM558.763 45.67c6.452 0 12.335-2.433 16.825-6.402 1.633-9.446 4.07-18.57 7.232-27.306-1.65-4.802-4.704-8.94-8.656-11.962h-3.49c-3.247 16.074-10.078 31.255-19.945 44.353 2.528.843 5.223 1.318 8.033 1.318zM477.396 31.942c-9.65 3.643-20.138 3.31-29.536-.938-2.49-1.125-4.81-2.503-6.966-4.08-7.592 10.358-15.994 19.932-25.116 28.647 6.49 6.253 14.074 11.412 22.53 15.233 19.392 8.766 41.032 9.455 60.942 1.942 16.015-6.042 29.906-15.838 40.755-28.473-7.162-5.596-11.792-14.287-11.792-24.06 0-7.745 2.903-14.822 7.672-20.212h-29.56c-.66 2.45-1.514 4.867-2.58 7.225-5.194 11.488-14.553 20.268-26.35 24.717zM533.305 20.213c0 8.182 3.895 15.455 9.91 20.115 4.792-6.19 8.906-12.977 12.214-20.292 2.94-6.507 5.135-13.22 6.627-20.037H543.31c-6.077 4.657-10.005 11.983-10.005 20.213zM445.79 19.984c1.718 1.27 3.57 2.386 5.563 3.287 7.334 3.314 15.518 3.575 23.045.732 9.68-3.65 17.354-10.852 21.613-20.274.555-1.226 1.04-2.47 1.46-3.73h-17.844c-2.244 5.336-6.58 9.78-12.408 11.98l-2.997-7.937c2.274-.858 4.168-2.282 5.604-4.04h-12.026c-3.538 6.672-7.442 13.2-11.714 19.557-.097.144-.197.283-.294.427zM439.656 13.883C442.673 9.34 445.5 4.71 448.13 0h-13.987c.168 2.18.638 4.352 1.43 6.456 1.02 2.695 2.405 5.18 4.083 7.427zM909.767 0h-46.315c2.01 6.87 3.444 13.9 4.29 21.035C881.435 13.355 895.46 6.342 909.766 0zM587.705 0H581.6c1.442 1.623 2.725 3.39 3.798 5.297.738-1.784 1.51-3.55 2.307-5.297zM396.585 26.335c3.206 8.5 7.756 16.242 13.413 23.014 8.963-8.574 17.203-18.01 24.626-28.232-2.956-3.408-5.35-7.32-6.987-11.667-1.162-3.076-1.825-6.258-2.005-9.45h-32.98c-.587 8.847.708 17.793 3.933 26.335zM833.014 9.56c2.245-3.255 4.604-6.437 7.05-9.56h-6.737c-.008.385-.008.77-.017 1.155-.065 2.807-.164 5.61-.296 8.405zM779.902 8.317c3.112 6.112 3.657 13.067 1.537 19.59-2.122 6.52-6.655 11.83-12.77 14.94-5.01 2.552-10.712 3-16.06 1.26-5.345-1.74-9.696-5.458-12.247-10.47-2.104-4.126-2.472-8.827-1.04-13.233 1.436-4.408 4.5-7.994 8.63-10.094 3.42-1.745 7.32-2.052 10.974-.864 3.656 1.188 6.63 3.73 8.374 7.156 1.46 2.86 1.714 6.118.72 9.17-.992 3.053-3.115 5.538-5.975 6.994-4.975 2.534-11.083.546-13.618-4.428l4.536-2.313c1.26 2.476 4.298 3.464 6.77 2.205 1.65-.84 2.874-2.273 3.446-4.03.572-1.76.425-3.638-.415-5.288-1.127-2.213-3.05-3.856-5.41-4.623-2.36-.768-4.88-.57-7.092.558-2.918 1.485-5.083 4.017-6.097 7.13-1.01 3.114-.75 6.434.733 9.35 1.934 3.8 5.233 6.618 9.286 7.937 4.053 1.317 8.376.98 12.174-.956 4.9-2.496 8.535-6.75 10.236-11.98 1.698-5.227 1.263-10.804-1.234-15.703-2.274-4.47-5.697-8.112-9.896-10.63h-27.208c-7.162 4.154-12.475 10.708-15.056 18.643-2.774 8.535-2.062 17.637 2.012 25.633 10.667 20.945 36.383 29.31 57.328 18.644 8.944-4.554 16.272-11.35 21.404-19.684 2.253-13.997 3.583-28.236 3.91-42.657.004-.192.004-.384.007-.577H773.75c2.436 2.354 4.532 5.135 6.152 8.317zM332.458 36.91c1.77-12.494 4.14-24.805 7.074-36.91h-43.166c15.3 25.244 26.208 53.238 31.82 82.797.69-15.26 2.102-30.568 4.272-45.887zM191.352 92.746c11.853 20.88 16.35 44.963 12.64 69.056-1.66 10.803-5.266 20.988-10.538 30.198h70.477c-14.803-25.71-25.205-53.62-30.81-82.807-14.466-3.605-28.49-9.11-41.768-16.447zM314.75 109.648c-2.1.476-4.207.932-6.328 1.348-16.14 3.164-32.375 4.02-48.326 2.668 6.496 27.88 17.884 54.332 33.736 78.336h12.625c2.795-8.913 4.95-18.094 6.397-27.5 2.853-18.55 3.404-36.924 1.897-54.852zM426.785 180.272c-7.958 1.483-14.678 5.81-19.322 11.728h56.307c-9.286-9.488-22.982-14.34-36.985-11.728zM329.627 167.08c-1.305 8.483-3.146 16.797-5.46 24.92h11.795c-2.12-11.188-3.843-22.463-5.15-33.81-.346 2.962-.73 5.923-1.185 8.89zM49.12 192c-5.025-11.84-6.938-25.164-4.843-38.784 4.95-32.18 35.158-54.33 67.335-49.38 26.666 4.102 45.025 29.136 40.923 55.804l-16.773-2.58c2.678-17.418-9.31-33.77-26.73-36.448-22.928-3.527-44.452 12.255-47.98 35.184-1.95 12.665.53 25.332 6.998 36.205h104.985c7.403-9.417 12.313-20.615 14.184-32.778 3.667-23.83-2.167-47.658-16.423-67.1-14.258-19.442-35.234-32.167-59.064-35.833-30.346-4.67-60.693 2.76-85.452 20.915C15.95 84.778 7.13 93.853 0 104.052V192h49.12zM64.4.976c-5.007 2.55-10.71 2.997-16.058 1.26C46.657 1.685 45.084.92 43.622 0H19.846c.336.81.696 1.612 1.098 2.4C31.61 23.347 57.327 31.713 78.272 21.046 87.697 16.247 95.327 8.955 100.484 0H66.106C65.55.34 64.99.676 64.4.976zM559.433 187.46c-6.697-2.177-13.84-1.617-20.118 1.58-1.69.86-3.282 1.855-4.778 2.96h33.29c-2.465-1.986-5.293-3.53-8.394-4.54zM178.248 74.37c1.544 1.116 3.083 2.24 4.672 3.307 15.125 10.17 31.517 17.64 48.598 22.32-2.47-15.822-3.566-31.98-3.194-48.328.384-16.89 2.678-33.44 6.753-49.415-1.784-.68-3.544-1.436-5.282-2.255H120.938c7.968 20.79 20 39.618 35.484 55.537 8.03 5.222 15.373 11.527 21.826 18.832zM16.243 63.517c28.415-20.838 63.245-29.363 98.07-24.005 7.682 1.18 15.104 3.184 22.195 5.894C126.093 31.66 117.792 16.388 111.87 0h-5.607c-5.614 10.97-14.486 19.883-25.68 25.583C57.136 37.523 28.347 28.16 16.405 4.71 15.624 3.175 14.96 1.6 14.393 0H0v77.616c4.977-5.084 10.39-9.807 16.243-14.1zM344.88 91.375c7.946-3.204 15.657-6.886 23.092-11.023-4.33-12.85-6.442-26.493-6.123-40.454l25.45.58c-.2 8.726.832 17.287 2.968 25.51 4.635-3.432 9.12-7.07 13.462-10.893-6.377-7.562-11.49-16.233-15.085-25.762-3.592-9.516-5.07-19.474-4.496-29.332h-27.13c-3.27 12.86-5.873 25.967-7.76 39.293-2.462 17.393-3.895 34.776-4.38 52.082z"/></svg>