<svg xmlns="http://www.w3.org/2000/svg" width="16" height="16"><path fill="#fff" d="M16 4h-3V1h-1v3H9v1h3v3h1V5h3z"/><path fill="#fff" d="M6.974 8.823c-.38-.27-1.108-.924-1.108-1.31 0-.45.13-.672.808-1.203.696-.544 1.188-1.15 1.188-2.04 0-1.057-.47-2.27-1.356-2.27H7.84l.94-1H4.574C2.686 1 .91 2.43.91 4.085c0 1.692 1.287 3.058 3.207 3.058.133 0 .263-.002.39-.012-.125.24-.214.51-.214.787 0 .47.253.852.573 1.163-.242 0-.475.008-.73.008C1.8 9.088 0 10.576 0 12.118c0 1.522 1.972 2.473 4.31 2.473 2.664 0 4.135-1.51 4.135-3.03 0-1.22-.36-1.95-1.47-2.737zm-2.248-2.11C3.64 6.684 2.61 5.502 2.423 4.08c-.188-1.424.54-2.514 1.624-2.482 1.084.032 2.115 1.175 2.303 2.6.187 1.423-.54 2.55-1.624 2.518zM4.3 13.92c-1.615 0-2.78-1.022-2.78-2.25 0-1.204 1.446-2.207 3.06-2.19.378.004.73.065 1.048.168.877.61 1.506.954 1.684 1.65.033.14.05.285.05.434 0 1.228-.79 2.188-3.06 2.188z"/></svg>