<svg xmlns="http://www.w3.org/2000/svg" width="16" height="16" viewBox="4.5 20.5 16 16" enable-background="new 4.5 20.5 16 16"><path fill="#fff" d="M20.058 21.745c-.634.382-1.337.66-2.084.81-.6-.65-1.452-1.055-2.397-1.055-1.812 0-3.28 1.495-3.28 3.34 0 .263.028.518.084.762-2.727-.14-5.146-1.47-6.765-3.49-.283.494-.445 1.067-.445 1.68 0 1.158.58 2.182 1.46 2.78-.538-.017-1.043-.168-1.486-.417v.042c0 1.618 1.13 2.968 2.633 3.275-.277.076-.567.117-.866.117-.21 0-.416-.02-.617-.062.417 1.328 1.63 2.295 3.066 2.32-1.125.896-2.54 1.43-4.077 1.43-.264 0-.525-.015-.783-.046 1.453.948 3.178 1.5 5.03 1.5 6.04 0 9.34-5.09 9.34-9.503 0-.146-.003-.29-.008-.434.64-.472 1.197-1.06 1.638-1.73-.59.267-1.22.445-1.885.525.68-.41 1.198-1.066 1.443-1.845z"/></svg>